<?xml version="1.0" encoding="UTF-8"?>
<!DOCTYPE svg PUBLIC "-//W3C//DTD SVG 1.1//EN" "http://www.w3.org/Graphics/SVG/1.1/DTD/svg11.dtd">
<svg xmlns="http://www.w3.org/2000/svg" xmlns:xlink="http://www.w3.org/1999/xlink" width="765px" height="1184px" version="1.1" style="background-color: rgb(255, 255, 255);"><defs><linearGradient x1="0%" y1="0%" x2="0%" y2="100%" id="mx-gradient-dae8fc-1-7ea6e0-1-s-0"><stop offset="0%" style="stop-color:#DAE8FC"/><stop offset="100%" style="stop-color:#7EA6E0"/></linearGradient><linearGradient x1="0%" y1="0%" x2="0%" y2="100%" id="mx-gradient-fff2cc-1-ffd966-1-s-0"><stop offset="0%" style="stop-color:#FFF2CC"/><stop offset="100%" style="stop-color:#FFD966"/></linearGradient><linearGradient x1="0%" y1="0%" x2="0%" y2="100%" id="mx-gradient-d5e8d4-1-97d077-1-s-0"><stop offset="0%" style="stop-color:#D5E8D4"/><stop offset="100%" style="stop-color:#97D077"/></linearGradient><linearGradient x1="0%" y1="0%" x2="0%" y2="100%" id="mx-gradient-e1d5e7-1-8c6c9c-1-s-0"><stop offset="0%" style="stop-color:#E1D5E7"/><stop offset="100%" style="stop-color:#8C6C9C"/></linearGradient></defs><g transform="translate(0.5,0.5)"><path d="M 77.5 952 L 140 1002 L 77.5 1052 L 15 1002 Z" fill="url(#mx-gradient-dae8fc-1-7ea6e0-1-s-0)" stroke="#6c8ebf" stroke-width="2" stroke-miterlimit="10" pointer-events="none"/><g fill="#000000" font-family="Helvetica" text-anchor="middle" font-size="12px"><text x="77.25" y="988.75">Are you</text><text x="77.25" y="1002.75">implementing a</text><text x="77.25" y="1016.75">web server?</text></g><path d="M 138 182 L 146.75 182 Q 155.5 182 161.07 182 L 166.63 182" fill="none" stroke="#000000" stroke-miterlimit="10" pointer-events="none"/><path d="M 171.88 182 L 164.88 185.5 L 166.63 182 L 164.88 178.5 Z" fill="#000000" stroke="#000000" stroke-miterlimit="10" pointer-events="none"/><g fill="#000000" font-family="Helvetica" text-anchor="middle" font-size="12px"><rect fill="#ffffff" stroke="none" x="140" y="166" width="23" height="15" stroke-width="0"/><text x="150.5" y="176.5">Yes</text></g><ellipse cx="78" cy="32" rx="70" ry="30" fill="url(#mx-gradient-dae8fc-1-7ea6e0-1-s-0)" stroke="#6c8ebf" stroke-width="2" pointer-events="none"/><g fill="#000000" font-family="Helvetica" text-anchor="middle" font-size="12px"><text x="77.75" y="35.75">2XX/3XX Response</text></g><path d="M 78 122 L 138 182 L 78 242 L 18 182 Z" fill="url(#mx-gradient-dae8fc-1-7ea6e0-1-s-0)" stroke="#6c8ebf" stroke-width="2" stroke-miterlimit="10" pointer-events="none"/><g fill="#000000" font-family="Helvetica" text-anchor="middle" font-size="12px"><text x="77.75" y="162.75">Do you</text><text x="77.75" y="176.75">want to redirect</text><text x="77.75" y="190.75">the user to a new</text><text x="77.75" y="204.75">Location?</text></g><path d="M 78 62 L 78 82 Q 78 92 78 102 L 78 115.63" fill="none" stroke="#000000" stroke-miterlimit="10" pointer-events="none"/><path d="M 78 120.88 L 74.5 113.88 L 78 115.63 L 81.5 113.88 Z" fill="#000000" stroke="#000000" stroke-miterlimit="10" pointer-events="none"/><path d="M 228 122 L 283 182 L 228 242 L 173 182 Z" fill="url(#mx-gradient-dae8fc-1-7ea6e0-1-s-0)" stroke="#6c8ebf" stroke-width="2" stroke-miterlimit="10" pointer-events="none"/><g fill="#000000" font-family="Helvetica" text-anchor="middle" font-size="12px"><text x="227.75" y="164.75">Is it to the</text><text x="227.75" y="178.75">same resource</text><text x="227.75" y="192.75">at a new</text><text x="227.75" y="206.75">Location?</text></g><path d="M 503 127 L 558 182 L 503 237 L 448 182 Z" fill="url(#mx-gradient-dae8fc-1-7ea6e0-1-s-0)" stroke="#6c8ebf" stroke-width="2" stroke-miterlimit="10" pointer-events="none"/><g fill="#000000" font-family="Helvetica" text-anchor="middle" font-size="12px"><text x="502.75" y="170.25">Is the new</text><text x="502.75" y="184.25">Location</text><text x="502.75" y="198.25">temporary?</text></g><path d="M 413 182 L 421.75 182 Q 430.5 182 436.07 182 L 441.63 182" fill="none" stroke="#000000" stroke-miterlimit="10" pointer-events="none"/><path d="M 446.88 182 L 439.88 185.5 L 441.63 182 L 439.88 178.5 Z" fill="#000000" stroke="#000000" stroke-miterlimit="10" pointer-events="none"/><g fill="#000000" font-family="Helvetica" text-anchor="middle" font-size="12px"><rect fill="#ffffff" stroke="none" x="413" y="166" width="23" height="15" stroke-width="0"/><text x="423.5" y="176.5">Yes</text></g><path d="M 558 182 L 575.5 182 Q 585.5 182 595.5 182 L 606.63 182" fill="none" stroke="#000000" stroke-miterlimit="10" pointer-events="none"/><path d="M 611.88 182 L 604.88 185.5 L 606.63 182 L 604.88 178.5 Z" fill="#000000" stroke="#000000" stroke-miterlimit="10" pointer-events="none"/><g fill="#000000" font-family="Helvetica" text-anchor="middle" font-size="12px"><rect fill="#ffffff" stroke="none" x="563" y="166" width="23" height="15" stroke-width="0"/><text x="573.5" y="176.5">Yes</text></g><path d="M 658.92 152 L 717.08 152 C 742.44 152 763 165.43 763 182 C 763 198.57 742.44 212 717.08 212 L 658.92 212 C 633.56 212 613 198.57 613 182 C 613 165.43 633.56 152 658.92 152 Z" fill="url(#mx-gradient-fff2cc-1-ffd966-1-s-0)" stroke="#d6b656" stroke-width="2" stroke-miterlimit="10" pointer-events="none"/><g fill="#000000" font-family="Helvetica" text-anchor="middle" font-size="12px"><text x="687.75" y="178.75">302</text><text x="687.75" y="192.75">Found</text></g><path d="M 658.92 237 L 717.08 237 C 742.44 237 763 250.43 763 267 C 763 283.57 742.44 297 717.08 297 L 658.92 297 C 633.56 297 613 283.57 613 267 C 613 250.43 633.56 237 658.92 237 Z" fill="url(#mx-gradient-fff2cc-1-ffd966-1-s-0)" stroke="#d6b656" stroke-width="2" stroke-miterlimit="10" pointer-events="none"/><g fill="#000000" font-family="Helvetica" text-anchor="middle" font-size="12px"><text x="687.75" y="262.25">301</text><text x="687.75" y="276.25">Moved Permanently</text></g><path d="M 503 237 L 503 257 Q 503 267 513 267 L 606.63 267" fill="none" stroke="#000000" stroke-miterlimit="10" pointer-events="none"/><path d="M 611.88 267 L 604.88 270.5 L 606.63 267 L 604.88 263.5 Z" fill="#000000" stroke="#000000" stroke-miterlimit="10" pointer-events="none"/><g fill="#000000" font-family="Helvetica" text-anchor="middle" font-size="12px"><rect fill="#ffffff" stroke="none" x="509" y="242" width="17" height="15" stroke-width="0"/><text x="516.5" y="252.5">No</text></g><path d="M 503 472 L 563 532 L 503 592 L 443 532 Z" fill="url(#mx-gradient-dae8fc-1-7ea6e0-1-s-0)" stroke="#6c8ebf" stroke-width="2" stroke-miterlimit="10" pointer-events="none"/><g fill="#000000" font-family="Helvetica" text-anchor="middle" font-size="12px"><text x="502.75" y="516.75">Was the</text><text x="502.75" y="530.75">Location created</text><text x="502.75" y="544.75">for the request?</text></g><path d="M 228 242 L 228 522 Q 228 532 238 532 L 436.63 532" fill="none" stroke="#000000" stroke-miterlimit="10" pointer-events="none"/><path d="M 441.88 532 L 434.88 535.5 L 436.63 532 L 434.88 528.5 Z" fill="#000000" stroke="#000000" stroke-miterlimit="10" pointer-events="none"/><g fill="#000000" font-family="Helvetica" text-anchor="middle" font-size="12px"><rect fill="#ffffff" stroke="none" x="235" y="248" width="77" height="29" stroke-width="0"/><text x="272.5" y="258.5">No, a different</text><text x="272.5" y="272.5">resource</text></g><path d="M 658.92 502 L 717.08 502 C 742.44 502 763 515.43 763 532 C 763 548.57 742.44 562 717.08 562 L 658.92 562 C 633.56 562 613 548.57 613 532 C 613 515.43 633.56 502 658.92 502 Z" fill="url(#mx-gradient-d5e8d4-1-97d077-1-s-0)" stroke="#82b366" stroke-width="2" stroke-miterlimit="10" pointer-events="none"/><g fill="#000000" font-family="Helvetica" text-anchor="middle" font-size="12px"><text x="687.75" y="526.75">201</text><text x="687.75" y="540.75">Created</text></g><path d="M 563 532 L 578 532 Q 588 532 597.32 532 L 606.63 532" fill="none" stroke="#000000" stroke-miterlimit="10" pointer-events="none"/><path d="M 611.88 532 L 604.88 535.5 L 606.63 532 L 604.88 528.5 Z" fill="#000000" stroke="#000000" stroke-miterlimit="10" pointer-events="none"/><g fill="#000000" font-family="Helvetica" text-anchor="middle" font-size="12px"><rect fill="#ffffff" stroke="none" x="566" y="513" width="23" height="15" stroke-width="0"/><text x="576.5" y="523.5">Yes</text></g><path d="M 658.92 592 L 717.08 592 C 742.44 592 763 605.43 763 622 C 763 638.57 742.44 652 717.08 652 L 658.92 652 C 633.56 652 613 638.57 613 622 C 613 605.43 633.56 592 658.92 592 Z" fill="url(#mx-gradient-d5e8d4-1-97d077-1-s-0)" stroke="#82b366" stroke-width="2" stroke-miterlimit="10" pointer-events="none"/><g fill="#000000" font-family="Helvetica" text-anchor="middle" font-size="12px"><text x="687.75" y="616.75">303</text><text x="687.75" y="630.75">See Other</text></g><path d="M 503 592 L 503 612 Q 503 622 513 622 L 606.63 622" fill="none" stroke="#000000" stroke-miterlimit="10" pointer-events="none"/><path d="M 611.88 622 L 604.88 625.5 L 606.63 622 L 604.88 618.5 Z" fill="#000000" stroke="#000000" stroke-miterlimit="10" pointer-events="none"/><g fill="#000000" font-family="Helvetica" text-anchor="middle" font-size="12px"><rect fill="#ffffff" stroke="none" x="510" y="595" width="17" height="15" stroke-width="0"/><text x="517.5" y="605.5">No</text></g><path d="M 78 662 L 128 712 L 78 762 L 28 712 Z" fill="url(#mx-gradient-dae8fc-1-7ea6e0-1-s-0)" stroke="#6c8ebf" stroke-width="2" stroke-miterlimit="10" pointer-events="none"/><g fill="#000000" font-family="Helvetica" text-anchor="middle" font-size="12px"><text x="77.75" y="694.75">Will the</text><text x="77.75" y="708.75">request be</text><text x="77.75" y="722.75">completed</text><text x="77.75" y="736.75">later?</text></g><path d="M 658.92 682 L 717.08 682 C 742.44 682 763 695.43 763 712 C 763 728.57 742.44 742 717.08 742 L 658.92 742 C 633.56 742 613 728.57 613 712 C 613 695.43 633.56 682 658.92 682 Z" fill="url(#mx-gradient-d5e8d4-1-97d077-1-s-0)" stroke="#82b366" stroke-width="2" stroke-miterlimit="10" pointer-events="none"/><g fill="#000000" font-family="Helvetica" text-anchor="middle" font-size="12px"><text x="687.75" y="707.25">202</text><text x="687.75" y="721.25">Accepted</text></g><path d="M 78 242 L 78 442 Q 78 452 78 462 L 78 655.63" fill="none" stroke="#000000" stroke-miterlimit="10" pointer-events="none"/><path d="M 78 660.88 L 74.5 653.88 L 78 655.63 L 81.5 653.88 Z" fill="#000000" stroke="#000000" stroke-miterlimit="10" pointer-events="none"/><g fill="#000000" font-family="Helvetica" text-anchor="middle" font-size="12px"><rect fill="#ffffff" stroke="none" x="86" y="248" width="17" height="15" stroke-width="0"/><text x="93.5" y="258.5">No</text></g><path d="M 128 712 L 360.5 712 Q 370.5 712 380.5 712 L 606.63 712" fill="none" stroke="#000000" stroke-miterlimit="10" pointer-events="none"/><path d="M 611.88 712 L 604.88 715.5 L 606.63 712 L 604.88 708.5 Z" fill="#000000" stroke="#000000" stroke-miterlimit="10" pointer-events="none"/><g fill="#000000" font-family="Helvetica" text-anchor="middle" font-size="12px"><rect fill="#ffffff" stroke="none" x="135" y="696" width="23" height="15" stroke-width="0"/><text x="145.5" y="706.5">Yes</text></g><path d="M 78 792 L 145 852 L 78 912 L 11 852 Z" fill="url(#mx-gradient-dae8fc-1-7ea6e0-1-s-0)" stroke="#6c8ebf" stroke-width="2" stroke-miterlimit="10" pointer-events="none"/><g fill="#000000" font-family="Helvetica" text-anchor="middle" font-size="12px"><text x="77.75" y="834.75">Do you want</text><text x="77.75" y="848.75">the user's view</text><text x="77.75" y="862.75">to remain</text><text x="77.75" y="876.75">unchanged?</text></g><path d="M 78 762 L 78 769.5 Q 78 777 78 781.32 L 78 785.63" fill="none" stroke="#000000" stroke-miterlimit="10" pointer-events="none"/><path d="M 78 790.88 L 74.5 783.88 L 78 785.63 L 81.5 783.88 Z" fill="#000000" stroke="#000000" stroke-miterlimit="10" pointer-events="none"/><g fill="#000000" font-family="Helvetica" text-anchor="middle" font-size="12px"><rect fill="#ffffff" stroke="none" x="83" y="763" width="68" height="15" stroke-width="0"/><text x="116.5" y="773.5">No, it's done</text></g><path d="M 658.92 822 L 717.08 822 C 742.44 822 763 835.43 763 852 C 763 868.57 742.44 882 717.08 882 L 658.92 882 C 633.56 882 613 868.57 613 852 C 613 835.43 633.56 822 658.92 822 Z" fill="url(#mx-gradient-e1d5e7-1-8c6c9c-1-s-0)" stroke="#9673a6" stroke-width="2" stroke-miterlimit="10" pointer-events="none"/><g fill="#000000" font-family="Helvetica" text-anchor="middle" font-size="12px"><text x="687.75" y="846.25">204</text><text x="687.75" y="860.25">No Content</text></g><path d="M 145 852 L 369 852 Q 379 852 389 852 L 606.63 852" fill="none" stroke="#000000" stroke-miterlimit="10" pointer-events="none"/><path d="M 611.88 852 L 604.88 855.5 L 606.63 852 L 604.88 848.5 Z" fill="#000000" stroke="#000000" stroke-miterlimit="10" pointer-events="none"/><g fill="#000000" font-family="Helvetica" text-anchor="middle" font-size="12px"><rect fill="#ffffff" stroke="none" x="153" y="836" width="23" height="15" stroke-width="0"/><text x="163.5" y="846.5">Yes</text></g><path d="M 47.92 1122 L 106.08 1122 C 131.44 1122 152 1135.43 152 1152 C 152 1168.57 131.44 1182 106.08 1182 L 47.92 1182 C 22.56 1182 2 1168.57 2 1152 C 2 1135.43 22.56 1122 47.92 1122 Z" fill="url(#mx-gradient-fff2cc-1-ffd966-1-s-0)" stroke="#d6b656" stroke-width="2" stroke-miterlimit="10" pointer-events="none"/><g fill="#000000" font-family="Helvetica" text-anchor="middle" font-size="12px"><text x="76.75" y="1148.75">200</text><text x="76.75" y="1162.75">OK</text></g><path d="M 77.5 1052 L 77.5 1077 Q 77.5 1087 77.33 1097 L 77 1115.63" fill="none" stroke="#000000" stroke-miterlimit="10" pointer-events="none"/><path d="M 77 1120.88 L 73.5 1113.88 L 77 1115.63 L 80.5 1113.88 Z" fill="#000000" stroke="#000000" stroke-miterlimit="10" pointer-events="none"/><g fill="#000000" font-family="Helvetica" text-anchor="middle" font-size="12px"><rect fill="#ffffff" stroke="none" x="57" y="1063" width="17" height="15" stroke-width="0"/><text x="65" y="1073.5">No</text></g><path d="M 78 912 L 78 922 Q 78 932 78 938.82 L 78 945.63" fill="none" stroke="#000000" stroke-miterlimit="10" pointer-events="none"/><path d="M 78 950.88 L 74.5 943.88 L 78 945.63 L 81.5 943.88 Z" fill="#000000" stroke="#000000" stroke-miterlimit="10" pointer-events="none"/><g fill="#000000" font-family="Helvetica" text-anchor="middle" font-size="12px"><rect fill="#ffffff" stroke="none" x="86" y="916" width="17" height="15" stroke-width="0"/><text x="93.5" y="926.5">No</text></g><path d="M 238.61 1022 L 277.39 1022 C 294.29 1022 308 1035.43 308 1052 C 308 1068.57 294.29 1082 277.39 1082 L 238.61 1082 C 221.71 1082 208 1068.57 208 1052 C 208 1035.43 221.71 1022 238.61 1022 Z" fill="url(#mx-gradient-e1d5e7-1-8c6c9c-1-s-0)" stroke="#9673a6" stroke-width="2" stroke-miterlimit="10" pointer-events="none"/><g fill="#000000" font-family="Helvetica" text-anchor="middle" font-size="12px"><text x="257.75" y="1044.75">206</text><text x="257.75" y="1058.75">Partial Content</text></g><path d="M 140 1007 L 140 1004.5 Q 140 1002 150 1002 L 248 1002 Q 258 1002 258 1011.32 L 258 1020.63" fill="none" stroke="#000000" stroke-miterlimit="10" pointer-events="none"/><path d="M 258 1025.88 L 254.5 1018.88 L 258 1020.63 L 261.5 1018.88 Z" fill="#000000" stroke="#000000" stroke-miterlimit="10" pointer-events="none"/><g fill="#000000" font-family="Helvetica" text-anchor="middle" font-size="12px"><rect fill="#ffffff" stroke="none" x="145" y="983" width="23" height="15" stroke-width="0"/><text x="155.5" y="993.5">Yes</text></g><path d="M 140 1002 L 173 1002 Q 183 1002 183 1012 L 183 1052 Q 183 1062 173 1062 L 83.37 1062" fill="none" stroke="#000000" stroke-miterlimit="10" pointer-events="none"/><path d="M 78.12 1062 L 85.12 1058.5 L 83.37 1062 L 85.12 1065.5 Z" fill="#000000" stroke="#000000" stroke-miterlimit="10" pointer-events="none"/><path d="M 363.61 1022 L 402.39 1022 C 419.29 1022 433 1035.43 433 1052 C 433 1068.57 419.29 1082 402.39 1082 L 363.61 1082 C 346.71 1082 333 1068.57 333 1052 C 333 1035.43 346.71 1022 363.61 1022 Z" fill="url(#mx-gradient-e1d5e7-1-8c6c9c-1-s-0)" stroke="#9673a6" stroke-width="2" stroke-miterlimit="10" pointer-events="none"/><g fill="#000000" font-family="Helvetica" text-anchor="middle" font-size="12px"><text x="382.75" y="1044.75">304</text><text x="382.75" y="1058.75">Not Modified</text></g><path d="M 140 1007 L 140 1004.5 Q 140 1002 150 1002 L 373 1002 Q 383 1002 383 1011.32 L 383 1020.63" fill="none" stroke="#000000" stroke-miterlimit="10" pointer-events="none"/><path d="M 383 1025.88 L 379.5 1018.88 L 383 1020.63 L 386.5 1018.88 Z" fill="#000000" stroke="#000000" stroke-miterlimit="10" pointer-events="none"/><path d="M 413 182 L 441.63 182" fill="none" stroke="#000000" stroke-miterlimit="10" pointer-events="none"/><path d="M 446.88 182 L 439.88 185.5 L 441.63 182 L 439.88 178.5 Z" fill="#000000" stroke="#000000" stroke-miterlimit="10" pointer-events="none"/><path d="M 363 132 L 413 182 L 363 232 L 313 182 Z" fill="url(#mx-gradient-dae8fc-1-7ea6e0-1-s-0)" stroke="#6c8ebf" stroke-width="2" stroke-miterlimit="10" pointer-events="none"/><g fill="#000000" font-family="Helvetica" text-anchor="middle" font-size="12px"><text x="362.75" y="171.75">Can the</text><text x="362.75" y="185.75">method change</text><text x="362.75" y="199.75">to GET?</text></g><path d="M 283 182 L 290.5 182 Q 298 182 302.32 182 L 306.63 182" fill="none" stroke="#000000" stroke-miterlimit="10" pointer-events="none"/><path d="M 311.88 182 L 304.88 185.5 L 306.63 182 L 304.88 178.5 Z" fill="#000000" stroke="#000000" stroke-miterlimit="10" pointer-events="none"/><g fill="#000000" font-family="Helvetica" text-anchor="middle" font-size="12px"><rect fill="#ffffff" stroke="none" x="283" y="166" width="23" height="15" stroke-width="0"/><text x="293.5" y="176.5">Yes</text></g><path d="M 503 302 L 558 357 L 503 412 L 448 357 Z" fill="url(#mx-gradient-dae8fc-1-7ea6e0-1-s-0)" stroke="#6c8ebf" stroke-width="2" stroke-miterlimit="10" pointer-events="none"/><g fill="#000000" font-family="Helvetica" text-anchor="middle" font-size="12px"><text x="502.75" y="345.25">Is the new</text><text x="502.75" y="359.25">Location</text><text x="502.75" y="373.25">temporary?</text></g><path d="M 558 357 L 575.5 357 Q 585.5 357 595.5 357 L 606.63 357" fill="none" stroke="#000000" stroke-miterlimit="10" pointer-events="none"/><path d="M 611.88 357 L 604.88 360.5 L 606.63 357 L 604.88 353.5 Z" fill="#000000" stroke="#000000" stroke-miterlimit="10" pointer-events="none"/><g fill="#000000" font-family="Helvetica" text-anchor="middle" font-size="12px"><rect fill="#ffffff" stroke="none" x="561" y="337" width="23" height="15" stroke-width="0"/><text x="571.5" y="347.5">Yes</text></g><path d="M 658.92 327 L 717.08 327 C 742.44 327 763 340.43 763 357 C 763 373.57 742.44 387 717.08 387 L 658.92 387 C 633.56 387 613 373.57 613 357 C 613 340.43 633.56 327 658.92 327 Z" fill="url(#mx-gradient-e1d5e7-1-8c6c9c-1-s-0)" stroke="#9673a6" stroke-width="2" stroke-miterlimit="10" pointer-events="none"/><g fill="#000000" font-family="Helvetica" text-anchor="middle" font-size="12px"><text x="687.75" y="352.25">307</text><text x="687.75" y="366.25">Temporary Redirect</text></g><path d="M 658.92 412 L 717.08 412 C 742.44 412 763 425.43 763 442 C 763 458.57 742.44 472 717.08 472 L 658.92 472 C 633.56 472 613 458.57 613 442 C 613 425.43 633.56 412 658.92 412 Z" fill="url(#mx-gradient-e1d5e7-1-8c6c9c-1-s-0)" stroke="#9673a6" stroke-width="2" stroke-miterlimit="10" pointer-events="none"/><g fill="#000000" font-family="Helvetica" text-anchor="middle" font-size="12px"><text x="687.75" y="435.75">308</text><text x="687.75" y="449.75">Permanent Redirect</text></g><path d="M 503 412 L 503 432 Q 503 442 513 442 L 606.63 442" fill="none" stroke="#000000" stroke-miterlimit="10" pointer-events="none"/><path d="M 611.88 442 L 604.88 445.5 L 606.63 442 L 604.88 438.5 Z" fill="#000000" stroke="#000000" stroke-miterlimit="10" pointer-events="none"/><g fill="#000000" font-family="Helvetica" text-anchor="middle" font-size="12px"><rect fill="#ffffff" stroke="none" x="509" y="415" width="17" height="15" stroke-width="0"/><text x="516.5" y="425.5">No</text></g><path d="M 363 232 L 363 347 Q 363 357 373 357 L 441.63 357" fill="none" stroke="#000000" stroke-miterlimit="10" pointer-events="none"/><path d="M 446.88 357 L 439.88 360.5 L 441.63 357 L 439.88 353.5 Z" fill="#000000" stroke="#000000" stroke-miterlimit="10" pointer-events="none"/><g fill="#000000" font-family="Helvetica" text-anchor="middle" font-size="12px"><rect fill="#ffffff" stroke="none" x="374" y="242" width="17" height="15" stroke-width="0"/><text x="381.5" y="252.5">No</text></g></g></svg>