<?xml version="1.0" encoding="UTF-8"?>
<!DOCTYPE svg PUBLIC "-//W3C//DTD SVG 1.1//EN" "http://www.w3.org/Graphics/SVG/1.1/DTD/svg11.dtd">
<svg xmlns="http://www.w3.org/2000/svg" xmlns:xlink="http://www.w3.org/1999/xlink" width="739px" height="2035px" version="1.1" style="background-color: rgb(255, 255, 255);"><defs><linearGradient x1="0%" y1="0%" x2="0%" y2="100%" id="mx-gradient-dae8fc-1-7ea6e0-1-s-0"><stop offset="0%" style="stop-color:#DAE8FC"/><stop offset="100%" style="stop-color:#7EA6E0"/></linearGradient><linearGradient x1="0%" y1="0%" x2="0%" y2="100%" id="mx-gradient-e1d5e7-1-8c6c9c-1-s-0"><stop offset="0%" style="stop-color:#E1D5E7"/><stop offset="100%" style="stop-color:#8C6C9C"/></linearGradient><linearGradient x1="0%" y1="0%" x2="0%" y2="100%" id="mx-gradient-d5e8d4-1-97d077-1-s-0"><stop offset="0%" style="stop-color:#D5E8D4"/><stop offset="100%" style="stop-color:#97D077"/></linearGradient><linearGradient x1="0%" y1="0%" x2="0%" y2="100%" id="mx-gradient-fff2cc-1-ffd966-1-s-0"><stop offset="0%" style="stop-color:#FFF2CC"/><stop offset="100%" style="stop-color:#FFD966"/></linearGradient></defs><g transform="translate(0.5,0.5)"><path d="M 81.5 1507 L 141 1567 L 81.5 1627 L 22 1567 Z" fill="url(#mx-gradient-dae8fc-1-7ea6e0-1-s-0)" stroke="#6c8ebf" stroke-width="2" stroke-miterlimit="10" pointer-events="none"/><g fill="#000000" font-family="Helvetica" text-anchor="middle" font-size="12px"><text x="81.25" y="1549.75">Is the body</text><text x="81.25" y="1563.75">well-formed</text><text x="81.25" y="1577.75">and yet still</text><text x="81.25" y="1591.75">invalid?</text></g><path d="M 145 1827 L 145 1827.5 Q 145 1828 155 1828 L 667 1828 Q 677 1828 677 1837.32 L 677 1846.63" fill="none" stroke="#000000" stroke-miterlimit="10" pointer-events="none"/><path d="M 677 1851.88 L 673.5 1844.88 L 677 1846.63 L 680.5 1844.88 Z" fill="#000000" stroke="#000000" stroke-miterlimit="10" pointer-events="none"/><path d="M 145 1827 L 145 1827.5 Q 145 1828 155 1828 L 447 1828 Q 457 1828 457 1837.32 L 457 1846.63" fill="none" stroke="#000000" stroke-miterlimit="10" pointer-events="none"/><path d="M 457 1851.88 L 453.5 1844.88 L 457 1846.63 L 460.5 1844.88 Z" fill="#000000" stroke="#000000" stroke-miterlimit="10" pointer-events="none"/><path d="M 145 1827 L 145 1827.5 Q 145 1828 155 1828 L 332 1828 Q 342 1828 342 1837.32 L 342 1846.63" fill="none" stroke="#000000" stroke-miterlimit="10" pointer-events="none"/><path d="M 342 1851.88 L 338.5 1844.88 L 342 1846.63 L 345.5 1844.88 Z" fill="#000000" stroke="#000000" stroke-miterlimit="10" pointer-events="none"/><path d="M 145 1827 L 145 1827.5 Q 145 1828 155 1828 L 204 1828 Q 214 1828 214 1837.32 L 214 1846.63" fill="none" stroke="#000000" stroke-miterlimit="10" pointer-events="none"/><path d="M 214 1851.88 L 210.5 1844.88 L 214 1846.63 L 217.5 1844.88 Z" fill="#000000" stroke="#000000" stroke-miterlimit="10" pointer-events="none"/><g fill="#000000" font-family="Helvetica" text-anchor="middle" font-size="12px"><rect fill="#ffffff" stroke="none" x="151" y="1809" width="23" height="15" stroke-width="0"/><text x="161.5" y="1819.5">Yes</text></g><ellipse cx="82" cy="32" rx="70" ry="30" fill="url(#mx-gradient-dae8fc-1-7ea6e0-1-s-0)" stroke="#6c8ebf" stroke-width="2" pointer-events="none"/><g fill="#000000" font-family="Helvetica" text-anchor="middle" font-size="12px"><text x="81.75" y="35.75">4XX Response</text></g><path d="M 82 92 L 137 147 L 82 202 L 27 147 Z" fill="url(#mx-gradient-dae8fc-1-7ea6e0-1-s-0)" stroke="#6c8ebf" stroke-width="2" stroke-miterlimit="10" pointer-events="none"/><g fill="#000000" font-family="Helvetica" text-anchor="middle" font-size="12px"><text x="81.75" y="136.75">Is the user</text><text x="81.75" y="150.75">being</text><text x="81.75" y="164.75">throttled?</text></g><path d="M 82 62 L 82 69.5 Q 82 77 82 81.32 L 82 85.63" fill="none" stroke="#000000" stroke-miterlimit="10" pointer-events="none"/><path d="M 82 90.88 L 78.5 83.88 L 82 85.63 L 85.5 83.88 Z" fill="#000000" stroke="#000000" stroke-miterlimit="10" pointer-events="none"/><path d="M 559 124 L 559 124" fill="none" stroke="#000000" stroke-miterlimit="10" pointer-events="none"/><path d="M 559 124 L 559 124 L 559 124 L 559 124 Z" fill="#000000" stroke="#000000" stroke-miterlimit="10" pointer-events="none"/><path d="M 587.92 117 L 646.08 117 C 671.44 117 692 130.43 692 147 C 692 163.57 671.44 177 646.08 177 L 587.92 177 C 562.56 177 542 163.57 542 147 C 542 130.43 562.56 117 587.92 117 Z" fill="url(#mx-gradient-e1d5e7-1-8c6c9c-1-s-0)" stroke="#9673a6" stroke-width="2" stroke-miterlimit="10" pointer-events="none"/><g fill="#000000" font-family="Helvetica" text-anchor="middle" font-size="12px"><text x="616.75" y="141.75">420</text><text x="616.75" y="155.75">Enhance Your Calm</text></g><path d="M 421 147 L 471.5 147 Q 481.5 147 491.5 147 L 535.63 147" fill="none" stroke="#000000" stroke-miterlimit="10" pointer-events="none"/><path d="M 540.88 147 L 533.88 150.5 L 535.63 147 L 533.88 143.5 Z" fill="#000000" stroke="#000000" stroke-miterlimit="10" pointer-events="none"/><g fill="#000000" font-family="Helvetica" text-anchor="middle" font-size="12px"><rect fill="#ffffff" stroke="none" x="425" y="129" width="23" height="15" stroke-width="0"/><text x="435.5" y="139.5">Yes</text></g><path d="M 82 252 L 142 312 L 82 372 L 22 312 Z" fill="url(#mx-gradient-dae8fc-1-7ea6e0-1-s-0)" stroke="#6c8ebf" stroke-width="2" stroke-miterlimit="10" pointer-events="none"/><g fill="#000000" font-family="Helvetica" text-anchor="middle" font-size="12px"><text x="81.75" y="301.75">Does the user</text><text x="81.75" y="315.75">need to</text><text x="81.75" y="329.75">authenticate?</text></g><path d="M 82 202 L 82 217 Q 82 227 82 236.32 L 82 245.63" fill="none" stroke="#000000" stroke-miterlimit="10" pointer-events="none"/><path d="M 82 250.88 L 78.5 243.88 L 82 245.63 L 85.5 243.88 Z" fill="#000000" stroke="#000000" stroke-miterlimit="10" pointer-events="none"/><g fill="#000000" font-family="Helvetica" text-anchor="middle" font-size="12px"><rect fill="#ffffff" stroke="none" x="89" y="206" width="17" height="15" stroke-width="0"/><text x="96.5" y="216.5">No</text></g><path d="M 262 262 L 312 312 L 262 362 L 212 312 Z" fill="url(#mx-gradient-dae8fc-1-7ea6e0-1-s-0)" stroke="#6c8ebf" stroke-width="2" stroke-miterlimit="10" pointer-events="none"/><g fill="#000000" font-family="Helvetica" text-anchor="middle" font-size="12px"><text x="261.75" y="308.75">Are you using</text><text x="261.75" y="322.75">HTTP auth?</text></g><path d="M 142 312 L 167 312 Q 177 312 187 312 L 205.63 312" fill="none" stroke="#000000" stroke-miterlimit="10" pointer-events="none"/><path d="M 210.88 312 L 203.88 315.5 L 205.63 312 L 203.88 308.5 Z" fill="#000000" stroke="#000000" stroke-miterlimit="10" pointer-events="none"/><g fill="#000000" font-family="Helvetica" text-anchor="middle" font-size="12px"><rect fill="#ffffff" stroke="none" x="147" y="296" width="23" height="15" stroke-width="0"/><text x="157.5" y="306.5">Yes</text></g><path d="M 587.92 282 L 646.08 282 C 671.44 282 692 295.43 692 312 C 692 328.57 671.44 342 646.08 342 L 587.92 342 C 562.56 342 542 328.57 542 312 C 542 295.43 562.56 282 587.92 282 Z" fill="url(#mx-gradient-d5e8d4-1-97d077-1-s-0)" stroke="#82b366" stroke-width="2" stroke-miterlimit="10" pointer-events="none"/><g fill="#000000" font-family="Helvetica" text-anchor="middle" font-size="12px"><text x="616.75" y="307.75">401</text><text x="616.75" y="321.75">Unauthorized</text></g><path d="M 312 312 L 417 312 Q 427 312 437 312 L 535.63 312" fill="none" stroke="#000000" stroke-miterlimit="10" pointer-events="none"/><path d="M 540.88 312 L 533.88 315.5 L 535.63 312 L 533.88 308.5 Z" fill="#000000" stroke="#000000" stroke-miterlimit="10" pointer-events="none"/><g fill="#000000" font-family="Helvetica" text-anchor="middle" font-size="12px"><rect fill="#ffffff" stroke="none" x="322" y="296" width="23" height="15" stroke-width="0"/><text x="332.5" y="306.5">Yes</text></g><path d="M 587.92 435 L 646.08 435 C 671.44 435 692 448.43 692 465 C 692 481.57 671.44 495 646.08 495 L 587.92 495 C 562.56 495 542 481.57 542 465 C 542 448.43 562.56 435 587.92 435 Z" fill="url(#mx-gradient-d5e8d4-1-97d077-1-s-0)" stroke="#82b366" stroke-width="2" stroke-miterlimit="10" pointer-events="none"/><g fill="#000000" font-family="Helvetica" text-anchor="middle" font-size="12px"><text x="616.75" y="460.75">403</text><text x="616.75" y="474.75">Forbidden</text></g><path d="M 262 362 L 262 456 Q 262 466 272 466 L 335.63 466" fill="none" stroke="#000000" stroke-miterlimit="10" pointer-events="none"/><path d="M 340.88 466 L 333.88 469.5 L 335.63 466 L 333.88 462.5 Z" fill="#000000" stroke="#000000" stroke-miterlimit="10" pointer-events="none"/><g fill="#000000" font-family="Helvetica" text-anchor="middle" font-size="12px"><rect fill="#ffffff" stroke="none" x="269" y="366" width="17" height="15" stroke-width="0"/><text x="276.5" y="376.5">No</text></g><path d="M 82 412 L 142 466.5 L 82 521 L 22 466.5 Z" fill="url(#mx-gradient-dae8fc-1-7ea6e0-1-s-0)" stroke="#6c8ebf" stroke-width="2" stroke-miterlimit="10" pointer-events="none"/><g fill="#000000" font-family="Helvetica" text-anchor="middle" font-size="12px"><text x="81.75" y="456.25">Does the user</text><text x="81.75" y="470.25">have access to the</text><text x="81.75" y="484.25">resource?</text></g><path d="M 82 372 L 82 382 Q 82 392 82 398.82 L 82 405.63" fill="none" stroke="#000000" stroke-miterlimit="10" pointer-events="none"/><path d="M 82 410.88 L 78.5 403.88 L 82 405.63 L 85.5 403.88 Z" fill="#000000" stroke="#000000" stroke-miterlimit="10" pointer-events="none"/><g fill="#000000" font-family="Helvetica" text-anchor="middle" font-size="12px"><rect fill="#ffffff" stroke="none" x="90" y="372" width="17" height="15" stroke-width="0"/><text x="97.5" y="382.5">No</text></g><path d="M 142 466.5 L 232 466.5 Q 242 466.5 252 466.45 L 335.63 466" fill="none" stroke="#000000" stroke-miterlimit="10" pointer-events="none"/><path d="M 340.88 466 L 333.88 469.5 L 335.63 466 L 333.88 462.5 Z" fill="#000000" stroke="#000000" stroke-miterlimit="10" pointer-events="none"/><g fill="#000000" font-family="Helvetica" text-anchor="middle" font-size="12px"><rect fill="#ffffff" stroke="none" x="148" y="449" width="17" height="15" stroke-width="0"/><text x="155.5" y="459">No</text></g><path d="M 82 570 L 137 625 L 82 680 L 27 625 Z" fill="url(#mx-gradient-dae8fc-1-7ea6e0-1-s-0)" stroke="#6c8ebf" stroke-width="2" stroke-miterlimit="10" pointer-events="none"/><g fill="#000000" font-family="Helvetica" text-anchor="middle" font-size="12px"><text x="81.75" y="614.75">Does the</text><text x="81.75" y="628.75">resource even</text><text x="81.75" y="642.75">exist?</text></g><path d="M 82 521 L 82 535.5 Q 82 545.5 82 554.57 L 82 563.63" fill="none" stroke="#000000" stroke-miterlimit="10" pointer-events="none"/><path d="M 82 568.88 L 78.5 561.88 L 82 563.63 L 85.5 561.88 Z" fill="#000000" stroke="#000000" stroke-miterlimit="10" pointer-events="none"/><g fill="#000000" font-family="Helvetica" text-anchor="middle" font-size="12px"><rect fill="#ffffff" stroke="none" x="89" y="524" width="23" height="15" stroke-width="0"/><text x="99.5" y="534.5">Yes</text></g><path d="M 387.5 422 L 433 465.5 L 387.5 509 L 342 465.5 Z" fill="url(#mx-gradient-dae8fc-1-7ea6e0-1-s-0)" stroke="#6c8ebf" stroke-width="2" stroke-miterlimit="10" pointer-events="none"/><g fill="#000000" font-family="Helvetica" text-anchor="middle" font-size="12px"><text x="387.25" y="452.25">Is the</text><text x="387.25" y="466.25">resource a</text><text x="387.25" y="480.25">secret?</text></g><path d="M 433 465.5 L 477.5 465.5 Q 487.5 465.5 497.5 465.4 L 535.63 465" fill="none" stroke="#000000" stroke-miterlimit="10" pointer-events="none"/><path d="M 540.88 465 L 533.88 468.5 L 535.63 465 L 533.88 461.5 Z" fill="#000000" stroke="#000000" stroke-miterlimit="10" pointer-events="none"/><g fill="#000000" font-family="Helvetica" text-anchor="middle" font-size="12px"><rect fill="#ffffff" stroke="none" x="439" y="449" width="17" height="15" stroke-width="0"/><text x="446.5" y="459">No</text></g><path d="M 388 509 L 388 615 Q 388 625 398 625 L 535.63 625" fill="none" stroke="#000000" stroke-miterlimit="10" pointer-events="none"/><path d="M 540.88 625 L 533.88 628.5 L 535.63 625 L 533.88 621.5 Z" fill="#000000" stroke="#000000" stroke-miterlimit="10" pointer-events="none"/><g fill="#000000" font-family="Helvetica" text-anchor="middle" font-size="12px"><rect fill="#ffffff" stroke="none" x="394" y="512" width="23" height="15" stroke-width="0"/><text x="404.5" y="522.5">Yes</text></g><path d="M 587.92 595 L 646.08 595 C 671.44 595 692 608.43 692 625 C 692 641.57 671.44 655 646.08 655 L 587.92 655 C 562.56 655 542 641.57 542 625 C 542 608.43 562.56 595 587.92 595 Z" fill="url(#mx-gradient-fff2cc-1-ffd966-1-s-0)" stroke="#d6b656" stroke-width="2" stroke-miterlimit="10" pointer-events="none"/><g fill="#000000" font-family="Helvetica" text-anchor="middle" font-size="12px"><text x="616.75" y="620.75">404</text><text x="616.75" y="634.75">Not Found</text></g><path d="M 262 575 L 312 625 L 262 675 L 212 625 Z" fill="url(#mx-gradient-dae8fc-1-7ea6e0-1-s-0)" stroke="#6c8ebf" stroke-width="2" stroke-miterlimit="10" pointer-events="none"/><g fill="#000000" font-family="Helvetica" text-anchor="middle" font-size="12px"><text x="261.75" y="614.25">Are you</text><text x="261.75" y="628.25">rage-quitting the</text><text x="261.75" y="642.25">internet?</text></g><path d="M 137 625 L 164.5 625 Q 174.5 625 184.5 625 L 205.63 625" fill="none" stroke="#000000" stroke-miterlimit="10" pointer-events="none"/><path d="M 210.88 625 L 203.88 628.5 L 205.63 625 L 203.88 621.5 Z" fill="#000000" stroke="#000000" stroke-miterlimit="10" pointer-events="none"/><g fill="#000000" font-family="Helvetica" text-anchor="middle" font-size="12px"><rect fill="#ffffff" stroke="none" x="145" y="606" width="17" height="15" stroke-width="0"/><text x="152.5" y="616.5">No</text></g><path d="M 312 625 L 417 625 Q 427 625 437 625 L 535.63 625" fill="none" stroke="#000000" stroke-miterlimit="10" pointer-events="none"/><path d="M 540.88 625 L 533.88 628.5 L 535.63 625 L 533.88 621.5 Z" fill="#000000" stroke="#000000" stroke-miterlimit="10" pointer-events="none"/><g fill="#000000" font-family="Helvetica" text-anchor="middle" font-size="12px"><rect fill="#ffffff" stroke="none" x="319" y="607" width="17" height="15" stroke-width="0"/><text x="326.5" y="617.5">No</text></g><path d="M 587.92 680 L 646.08 680 C 671.44 680 692 693.43 692 710 C 692 726.57 671.44 740 646.08 740 L 587.92 740 C 562.56 740 542 726.57 542 710 C 542 693.43 562.56 680 587.92 680 Z" fill="url(#mx-gradient-e1d5e7-1-8c6c9c-1-s-0)" stroke="#9673a6" stroke-width="2" stroke-miterlimit="10" pointer-events="none"/><g fill="#000000" font-family="Helvetica" text-anchor="middle" font-size="12px"><text x="616.75" y="704.75">410</text><text x="616.75" y="718.75">Gone</text></g><path d="M 262 675 L 262 700 Q 262 710 272 710 L 535.63 710" fill="none" stroke="#000000" stroke-miterlimit="10" pointer-events="none"/><path d="M 540.88 710 L 533.88 713.5 L 535.63 710 L 533.88 706.5 Z" fill="#000000" stroke="#000000" stroke-miterlimit="10" pointer-events="none"/><g fill="#000000" font-family="Helvetica" text-anchor="middle" font-size="12px"><rect fill="#ffffff" stroke="none" x="268" y="680" width="23" height="15" stroke-width="0"/><text x="278.5" y="690.5">Yes</text></g><path d="M 147 805 L 147 805" fill="none" stroke="#000000" stroke-miterlimit="10" pointer-events="none"/><path d="M 147 805 L 147 805 L 147 805 L 147 805 Z" fill="#000000" stroke="#000000" stroke-miterlimit="10" pointer-events="none"/><path d="M 82 740 L 147 805 L 82 870 L 17 805 Z" fill="url(#mx-gradient-dae8fc-1-7ea6e0-1-s-0)" stroke="#6c8ebf" stroke-width="2" stroke-miterlimit="10" pointer-events="none"/><g fill="#000000" font-family="Helvetica" text-anchor="middle" font-size="12px"><text x="81.75" y="791.25">Is the HTTP</text><text x="81.75" y="805.25">method handled</text><text x="81.75" y="819.25">by the resource?</text></g><path d="M 82 680 L 82 700 Q 82 710 82 720 L 82 733.63" fill="none" stroke="#000000" stroke-miterlimit="10" pointer-events="none"/><path d="M 82 738.88 L 78.5 731.88 L 82 733.63 L 85.5 731.88 Z" fill="#000000" stroke="#000000" stroke-miterlimit="10" pointer-events="none"/><g fill="#000000" font-family="Helvetica" text-anchor="middle" font-size="12px"><rect fill="#ffffff" stroke="none" x="88" y="683" width="23" height="15" stroke-width="0"/><text x="98.5" y="693.5">Yes</text></g><path d="M 591.39 775 L 647.61 775 C 672.13 775 692 788.43 692 805 C 692 821.57 672.13 835 647.61 835 L 591.39 835 C 566.87 835 547 821.57 547 805 C 547 788.43 566.87 775 591.39 775 Z" fill="url(#mx-gradient-d5e8d4-1-97d077-1-s-0)" stroke="#82b366" stroke-width="2" stroke-miterlimit="10" pointer-events="none"/><g fill="#000000" font-family="Helvetica" text-anchor="middle" font-size="12px"><text x="619.25" y="799.75">405</text><text x="619.25" y="813.75">Method Not Allowed</text></g><path d="M 147 805 L 337 805 Q 347 805 357 805 L 540.63 805" fill="none" stroke="#000000" stroke-miterlimit="10" pointer-events="none"/><path d="M 545.88 805 L 538.88 808.5 L 540.63 805 L 538.88 801.5 Z" fill="#000000" stroke="#000000" stroke-miterlimit="10" pointer-events="none"/><g fill="#000000" font-family="Helvetica" text-anchor="middle" font-size="12px"><rect fill="#ffffff" stroke="none" x="153" y="788" width="17" height="15" stroke-width="0"/><text x="160.5" y="798.5">No</text></g><path d="M 339 965 L 441 965 L 535.63 965" fill="none" stroke="#000000" stroke-miterlimit="10" pointer-events="none"/><path d="M 540.88 965 L 533.88 968.5 L 535.63 965 L 533.88 961.5 Z" fill="#000000" stroke="#000000" stroke-miterlimit="10" pointer-events="none"/><g fill="#000000" font-family="Helvetica" text-anchor="middle" font-size="12px"><rect fill="#ffffff" stroke="none" x="348" y="948" width="39" height="15" stroke-width="0"/><text x="366.5" y="958.5">Accept</text></g><path d="M 301.5 927 L 339 964.5 L 301.5 1002 L 264 964.5 Z" fill="url(#mx-gradient-dae8fc-1-7ea6e0-1-s-0)" stroke="#6c8ebf" stroke-width="2" stroke-miterlimit="10" pointer-events="none"/><g fill="#000000" font-family="Helvetica" text-anchor="middle" font-size="12px"><text x="301.25" y="967.25">Header</text></g><path d="M 587.92 935 L 646.08 935 C 671.44 935 692 948.43 692 965 C 692 981.57 671.44 995 646.08 995 L 587.92 995 C 562.56 995 542 981.57 542 965 C 542 948.43 562.56 935 587.92 935 Z" fill="url(#mx-gradient-d5e8d4-1-97d077-1-s-0)" stroke="#82b366" stroke-width="2" stroke-miterlimit="10" pointer-events="none"/><g fill="#000000" font-family="Helvetica" text-anchor="middle" font-size="12px"><text x="616.75" y="959.25">406</text><text x="616.75" y="973.25">Not Acceptable</text></g><path d="M 591.39 1183 L 647.61 1183 C 672.13 1183 692 1196.43 692 1213 C 692 1229.57 672.13 1243 647.61 1243 L 591.39 1243 C 566.87 1243 547 1229.57 547 1213 C 547 1196.43 566.87 1183 591.39 1183 Z" fill="url(#mx-gradient-d5e8d4-1-97d077-1-s-0)" stroke="#82b366" stroke-width="2" stroke-miterlimit="10" pointer-events="none"/><g fill="#000000" font-family="Helvetica" text-anchor="middle" font-size="12px"><text x="619.25" y="1206.25">415</text><text x="619.25" y="1220.25">Unsupported Media Type</text></g><path d="M 591.39 1268 L 647.61 1268 C 672.13 1268 692 1281.43 692 1298 C 692 1314.57 672.13 1328 647.61 1328 L 591.39 1328 C 566.87 1328 547 1314.57 547 1298 C 547 1281.43 566.87 1268 591.39 1268 Z" fill="url(#mx-gradient-e1d5e7-1-8c6c9c-1-s-0)" stroke="#9673a6" stroke-width="2" stroke-miterlimit="10" pointer-events="none"/><g fill="#000000" font-family="Helvetica" text-anchor="middle" font-size="12px"><text x="619.25" y="1290.75">417</text><text x="619.25" y="1304.75">Expectation Failed</text></g><path d="M 82.5 1770 L 145 1826.5 L 82.5 1883 L 20 1826.5 Z" fill="url(#mx-gradient-dae8fc-1-7ea6e0-1-s-0)" stroke="#6c8ebf" stroke-width="2" stroke-miterlimit="10" pointer-events="none"/><g fill="#000000" font-family="Helvetica" text-anchor="middle" font-size="12px"><text x="82.25" y="1811.75">Are you</text><text x="82.25" y="1825.75">implementing a</text><text x="82.25" y="1839.75">web server?</text></g><path d="M 82 1020 L 82 1185 L 82 1343.63" fill="none" stroke="#000000" stroke-miterlimit="10" pointer-events="none"/><path d="M 82 1348.88 L 78.5 1341.88 L 82 1343.63 L 85.5 1341.88 Z" fill="#000000" stroke="#000000" stroke-miterlimit="10" pointer-events="none"/><g fill="#000000" font-family="Helvetica" text-anchor="middle" font-size="12px"><rect fill="#ffffff" stroke="none" x="87" y="1025" width="17" height="15" stroke-width="0"/><text x="94.5" y="1035.5">No</text></g><path d="M 81.5 910 L 139 965 L 81.5 1020 L 24 965 Z" fill="url(#mx-gradient-dae8fc-1-7ea6e0-1-s-0)" stroke="#6c8ebf" stroke-width="2" stroke-miterlimit="10" pointer-events="none"/><g fill="#000000" font-family="Helvetica" text-anchor="middle" font-size="12px"><text x="81.25" y="953.25">Problem</text><text x="81.25" y="967.25">with the</text><text x="81.25" y="981.25">headers?</text></g><path d="M 82 870 L 82 880 Q 82 890 82 896.82 L 82 903.63" fill="none" stroke="#000000" stroke-miterlimit="10" pointer-events="none"/><path d="M 82 908.88 L 78.5 901.88 L 82 903.63 L 85.5 901.88 Z" fill="#000000" stroke="#000000" stroke-miterlimit="10" pointer-events="none"/><g fill="#000000" font-family="Helvetica" text-anchor="middle" font-size="12px"><rect fill="#ffffff" stroke="none" x="89" y="872" width="23" height="15" stroke-width="0"/><text x="99.5" y="882.5">Yes</text></g><path d="M 139 965 L 191.5 965 Q 201.5 965 211.5 965 L 257.63 965" fill="none" stroke="#000000" stroke-miterlimit="10" pointer-events="none"/><path d="M 262.88 965 L 255.88 968.5 L 257.63 965 L 255.88 961.5 Z" fill="#000000" stroke="#000000" stroke-miterlimit="10" pointer-events="none"/><g fill="#000000" font-family="Helvetica" text-anchor="middle" font-size="12px"><rect fill="#ffffff" stroke="none" x="144" y="947" width="23" height="15" stroke-width="0"/><text x="154.5" y="957.5">Yes</text></g><path d="M 591.39 1537 L 647.61 1537 C 672.13 1537 692 1550.43 692 1567 C 692 1583.57 672.13 1597 647.61 1597 L 591.39 1597 C 566.87 1597 547 1583.57 547 1567 C 547 1550.43 566.87 1537 591.39 1537 Z" fill="url(#mx-gradient-e1d5e7-1-8c6c9c-1-s-0)" stroke="#9673a6" stroke-width="2" stroke-miterlimit="10" pointer-events="none"/><g fill="#000000" font-family="Helvetica" text-anchor="middle" font-size="12px"><text x="619.25" y="1561.75">422</text><text x="619.25" y="1575.75">Unprocessable Entity</text></g><path d="M 141 1567 L 334 1567 Q 344 1567 354 1567 L 540.63 1567" fill="none" stroke="#000000" stroke-miterlimit="10" pointer-events="none"/><path d="M 545.88 1567 L 538.88 1570.5 L 540.63 1567 L 538.88 1563.5 Z" fill="#000000" stroke="#000000" stroke-miterlimit="10" pointer-events="none"/><g fill="#000000" font-family="Helvetica" text-anchor="middle" font-size="12px"><rect fill="#ffffff" stroke="none" x="146" y="1548" width="23" height="15" stroke-width="0"/><text x="156.5" y="1558.5">Yes</text></g><path d="M 81.5 1465 L 81.5 1500.63" fill="none" stroke="#000000" stroke-miterlimit="10" pointer-events="none"/><path d="M 81.5 1505.88 L 78 1498.88 L 81.5 1500.63 L 85 1498.88 Z" fill="#000000" stroke="#000000" stroke-miterlimit="10" pointer-events="none"/><g fill="#000000" font-family="Helvetica" text-anchor="middle" font-size="12px"><rect fill="#ffffff" stroke="none" x="87" y="1467" width="17" height="15" stroke-width="0"/><text x="95" y="1477.5">No</text></g><path d="M 81.5 1350 L 141 1407.5 L 81.5 1465 L 22 1407.5 Z" fill="url(#mx-gradient-dae8fc-1-7ea6e0-1-s-0)" stroke="#6c8ebf" stroke-width="2" stroke-miterlimit="10" pointer-events="none"/><g fill="#000000" font-family="Helvetica" text-anchor="middle" font-size="12px"><text x="81.25" y="1390.25">Request</text><text x="81.25" y="1404.25">incompatible with</text><text x="81.25" y="1418.25">a previous</text><text x="81.25" y="1432.25">request?</text></g><path d="M 591.39 1377 L 647.61 1377 C 672.13 1377 692 1390.43 692 1407 C 692 1423.57 672.13 1437 647.61 1437 L 591.39 1437 C 566.87 1437 547 1423.57 547 1407 C 547 1390.43 566.87 1377 591.39 1377 Z" fill="url(#mx-gradient-d5e8d4-1-97d077-1-s-0)" stroke="#82b366" stroke-width="2" stroke-miterlimit="10" pointer-events="none"/><g fill="#000000" font-family="Helvetica" text-anchor="middle" font-size="12px"><text x="619.25" y="1401.75">409</text><text x="619.25" y="1415.75">Conflict</text></g><path d="M 141 1407.5 L 334 1407.5 Q 344 1407.5 354 1407.47 L 540.63 1407" fill="none" stroke="#000000" stroke-miterlimit="10" pointer-events="none"/><path d="M 545.88 1407 L 538.88 1410.5 L 540.63 1407 L 538.88 1403.5 Z" fill="#000000" stroke="#000000" stroke-miterlimit="10" pointer-events="none"/><g fill="#000000" font-family="Helvetica" text-anchor="middle" font-size="12px"><rect fill="#ffffff" stroke="none" x="147" y="1390" width="23" height="15" stroke-width="0"/><text x="157.5" y="1400">Yes</text></g><path d="M 587.92 1020 L 646.08 1020 C 671.44 1020 692 1033.43 692 1050 C 692 1066.57 671.44 1080 646.08 1080 L 587.92 1080 C 562.56 1080 542 1066.57 542 1050 C 542 1033.43 562.56 1020 587.92 1020 Z" fill="url(#mx-gradient-e1d5e7-1-8c6c9c-1-s-0)" stroke="#9673a6" stroke-width="2" stroke-miterlimit="10" pointer-events="none"/><g fill="#000000" font-family="Helvetica" text-anchor="middle" font-size="12px"><text x="616.75" y="1044.25">411</text><text x="616.75" y="1058.25">Length Required</text></g><path d="M 83 1733 L 83 1742.25 Q 83 1751.5 83 1757.57 L 83 1763.63" fill="none" stroke="#000000" stroke-miterlimit="10" pointer-events="none"/><path d="M 83 1768.88 L 79.5 1761.88 L 83 1763.63 L 86.5 1761.88 Z" fill="#000000" stroke="#000000" stroke-miterlimit="10" pointer-events="none"/><g fill="#000000" font-family="Helvetica" text-anchor="middle" font-size="12px"><rect fill="#ffffff" stroke="none" x="91" y="1734" width="17" height="15" stroke-width="0"/><text x="98.5" y="1744.5">No</text></g><path d="M 191.9 1853 L 236.1 1853 C 255.38 1853 271 1866.43 271 1883 C 271 1899.57 255.38 1913 236.1 1913 L 191.9 1913 C 172.62 1913 157 1899.57 157 1883 C 157 1866.43 172.62 1853 191.9 1853 Z" fill="url(#mx-gradient-e1d5e7-1-8c6c9c-1-s-0)" stroke="#9673a6" stroke-width="2" stroke-miterlimit="10" pointer-events="none"/><g fill="#000000" font-family="Helvetica" text-anchor="middle" font-size="12px"><text x="213.75" y="1875.75">408</text><text x="213.75" y="1889.75">Request Timeout</text></g><path d="M 318.73 1853 L 365.27 1853 C 385.55 1853 402 1866.43 402 1883 C 402 1899.57 385.55 1913 365.27 1913 L 318.73 1913 C 298.45 1913 282 1899.57 282 1883 C 282 1866.43 298.45 1853 318.73 1853 Z" fill="url(#mx-gradient-e1d5e7-1-8c6c9c-1-s-0)" stroke="#9673a6" stroke-width="2" stroke-miterlimit="10" pointer-events="none"/><g fill="#000000" font-family="Helvetica" text-anchor="middle" font-size="12px"><text x="341.75" y="1875.25">413</text><text x="341.75" y="1889.25">Payload Too Large</text></g><path d="M 439.55 1853 L 474.45 1853 C 489.66 1853 502 1866.43 502 1883 C 502 1899.57 489.66 1913 474.45 1913 L 439.55 1913 C 424.34 1913 412 1899.57 412 1883 C 412 1866.43 424.34 1853 439.55 1853 Z" fill="url(#mx-gradient-e1d5e7-1-8c6c9c-1-s-0)" stroke="#9673a6" stroke-width="2" stroke-miterlimit="10" pointer-events="none"/><g fill="#000000" font-family="Helvetica" text-anchor="middle" font-size="12px"><text x="456.75" y="1874.75">414</text><text x="456.75" y="1888.75">URI Too Long</text></g><path d="M 653.73 1853 L 700.27 1853 C 720.55 1853 737 1866.43 737 1883 C 737 1899.57 720.55 1913 700.27 1913 L 653.73 1913 C 633.45 1913 617 1899.57 617 1883 C 617 1866.43 633.45 1853 653.73 1853 Z" fill="url(#mx-gradient-e1d5e7-1-8c6c9c-1-s-0)" stroke="#9673a6" stroke-width="2" stroke-miterlimit="10" pointer-events="none"/><g fill="#000000" font-family="Helvetica" text-anchor="middle" font-size="12px"><text x="676.75" y="1875.25">426</text><text x="676.75" y="1889.25">Upgrade Required</text></g><path d="M 50.98 1973 L 113.02 1973 C 140.07 1973 162 1986.43 162 2003 C 162 2019.57 140.07 2033 113.02 2033 L 50.98 2033 C 23.93 2033 2 2019.57 2 2003 C 2 1986.43 23.93 1973 50.98 1973 Z" fill="url(#mx-gradient-fff2cc-1-ffd966-1-s-0)" stroke="#d6b656" stroke-width="2" stroke-miterlimit="10" pointer-events="none"/><g fill="#000000" font-family="Helvetica" text-anchor="middle" font-size="12px"><text x="81.75" y="1999.75">400</text><text x="81.75" y="2013.75">Bad Request</text></g><path d="M 82.5 1883 L 82.5 1918 Q 82.5 1928 82.37 1938 L 82 1966.63" fill="none" stroke="#000000" stroke-miterlimit="10" pointer-events="none"/><path d="M 82 1971.88 L 78.5 1964.88 L 82 1966.63 L 85.5 1964.88 Z" fill="#000000" stroke="#000000" stroke-miterlimit="10" pointer-events="none"/><g fill="#000000" font-family="Helvetica" text-anchor="middle" font-size="12px"><rect fill="#ffffff" stroke="none" x="91" y="1887" width="17" height="15" stroke-width="0"/><text x="98.5" y="1897">No</text></g><path d="M 539.55 1853 L 574.45 1853 C 589.66 1853 602 1866.43 602 1883 C 602 1899.57 589.66 1913 574.45 1913 L 539.55 1913 C 524.34 1913 512 1899.57 512 1883 C 512 1866.43 524.34 1853 539.55 1853 Z" fill="url(#mx-gradient-e1d5e7-1-8c6c9c-1-s-0)" stroke="#9673a6" stroke-width="2" stroke-miterlimit="10" pointer-events="none"/><g fill="#000000" font-family="Helvetica" text-anchor="middle" font-size="12px"><text x="556.75" y="1867.75">416</text><text x="556.75" y="1881.75">Range Not</text><text x="556.75" y="1895.75">Satisfiable</text></g><path d="M 145 1827 L 145 1827.5 Q 145 1828 155 1828 L 547 1828 Q 557 1828 557 1837.32 L 557 1846.63" fill="none" stroke="#000000" stroke-miterlimit="10" pointer-events="none"/><path d="M 557 1851.88 L 553.5 1844.88 L 557 1846.63 L 560.5 1844.88 Z" fill="#000000" stroke="#000000" stroke-miterlimit="10" pointer-events="none"/><path d="M 587.92 1100 L 646.08 1100 C 671.44 1100 692 1113.43 692 1130 C 692 1146.57 671.44 1160 646.08 1160 L 587.92 1160 C 562.56 1160 542 1146.57 542 1130 C 542 1113.43 562.56 1100 587.92 1100 Z" fill="url(#mx-gradient-d5e8d4-1-97d077-1-s-0)" stroke="#82b366" stroke-width="2" stroke-miterlimit="10" pointer-events="none"/><g fill="#000000" font-family="Helvetica" text-anchor="middle" font-size="12px"><text x="616.75" y="1123.75">412</text><text x="616.75" y="1137.75">Precondition Failed</text></g><path d="M 302 1002 L 302 1040 Q 302 1050 312 1050 L 535.63 1050" fill="none" stroke="#000000" stroke-miterlimit="10" pointer-events="none"/><path d="M 540.88 1050 L 533.88 1053.5 L 535.63 1050 L 533.88 1046.5 Z" fill="#000000" stroke="#000000" stroke-miterlimit="10" pointer-events="none"/><g fill="#000000" font-family="Helvetica" text-anchor="middle" font-size="12px"><rect fill="#ffffff" stroke="none" x="347" y="1029" width="85" height="15" stroke-width="0"/><text x="388.5" y="1039.5">Content-Length</text></g><path d="M 302 1002 L 302 1120 Q 302 1130 312 1130 L 535.63 1130" fill="none" stroke="#000000" stroke-miterlimit="10" pointer-events="none"/><path d="M 540.88 1130 L 533.88 1133.5 L 535.63 1130 L 533.88 1126.5 Z" fill="#000000" stroke="#000000" stroke-miterlimit="10" pointer-events="none"/><g fill="#000000" font-family="Helvetica" text-anchor="middle" font-size="12px"><rect fill="#ffffff" stroke="none" x="346" y="1114" width="17" height="15" stroke-width="0"/><text x="353.5" y="1124.5">If-*</text></g><path d="M 302 1002 L 302 1203 Q 302 1213 312 1213 L 540.63 1213" fill="none" stroke="#000000" stroke-miterlimit="10" pointer-events="none"/><path d="M 545.88 1213 L 538.88 1216.5 L 540.63 1213 L 538.88 1209.5 Z" fill="#000000" stroke="#000000" stroke-miterlimit="10" pointer-events="none"/><g fill="#000000" font-family="Helvetica" text-anchor="middle" font-size="12px"><rect fill="#ffffff" stroke="none" x="346" y="1192" width="75" height="15" stroke-width="0"/><text x="382.5" y="1202.5">Content-Type</text></g><path d="M 302 1002 L 302 1288 Q 302 1298 312 1298 L 540.63 1298" fill="none" stroke="#000000" stroke-miterlimit="10" pointer-events="none"/><path d="M 545.88 1298 L 538.88 1301.5 L 540.63 1298 L 538.88 1294.5 Z" fill="#000000" stroke="#000000" stroke-miterlimit="10" pointer-events="none"/><g fill="#000000" font-family="Helvetica" text-anchor="middle" font-size="12px"><rect fill="#ffffff" stroke="none" x="344" y="1278" width="39" height="15" stroke-width="0"/><text x="362.5" y="1288.5">Expect</text></g><path d="M 302 1002 L 302 1290 Q 302 1300 292 1300 L 88.37 1300" fill="none" stroke="#000000" stroke-miterlimit="10" pointer-events="none"/><path d="M 83.12 1300 L 90.12 1296.5 L 88.37 1300 L 90.12 1303.5 Z" fill="#000000" stroke="#000000" stroke-miterlimit="10" pointer-events="none"/><g fill="#000000" font-family="Helvetica" text-anchor="middle" font-size="12px"><rect fill="#ffffff" stroke="none" x="254" y="1280" width="32" height="15" stroke-width="0"/><text x="269.5" y="1290.5">Other</text></g><path d="M 371 97 L 421 147 L 371 197 L 321 147 Z" fill="url(#mx-gradient-dae8fc-1-7ea6e0-1-s-0)" stroke="#6c8ebf" stroke-width="2" stroke-miterlimit="10" pointer-events="none"/><g fill="#000000" font-family="Helvetica" text-anchor="middle" font-size="12px"><text x="370.75" y="143.75">Are you</text><text x="370.75" y="157.75">Twitter?</text></g><path d="M 137 147 L 219 147 Q 229 147 239 147 L 314.63 147" fill="none" stroke="#000000" stroke-miterlimit="10" pointer-events="none"/><path d="M 319.88 147 L 312.88 150.5 L 314.63 147 L 312.88 143.5 Z" fill="#000000" stroke="#000000" stroke-miterlimit="10" pointer-events="none"/><g fill="#000000" font-family="Helvetica" text-anchor="middle" font-size="12px"><rect fill="#ffffff" stroke="none" x="142" y="128" width="23" height="15" stroke-width="0"/><text x="152.5" y="138.5">Yes</text></g><path d="M 587.92 192 L 646.08 192 C 671.44 192 692 205.43 692 222 C 692 238.57 671.44 252 646.08 252 L 587.92 252 C 562.56 252 542 238.57 542 222 C 542 205.43 562.56 192 587.92 192 Z" fill="url(#mx-gradient-d5e8d4-1-97d077-1-s-0)" stroke="#82b366" stroke-width="2" stroke-miterlimit="10" pointer-events="none"/><g fill="#000000" font-family="Helvetica" text-anchor="middle" font-size="12px"><text x="616.75" y="217.75">429</text><text x="616.75" y="231.75">Too Many Requests</text></g><path d="M 371 197 L 371 212 Q 371 222 381 222 L 535.63 222" fill="none" stroke="#000000" stroke-miterlimit="10" pointer-events="none"/><path d="M 540.88 222 L 533.88 225.5 L 535.63 222 L 533.88 218.5 Z" fill="#000000" stroke="#000000" stroke-miterlimit="10" pointer-events="none"/><g fill="#000000" font-family="Helvetica" text-anchor="middle" font-size="12px"><rect fill="#ffffff" stroke="none" x="377" y="199" width="17" height="15" stroke-width="0"/><text x="384.5" y="209.5">No</text></g><path d="M 83 1653 L 123 1693 L 83 1733 L 43 1693 Z" fill="url(#mx-gradient-dae8fc-1-7ea6e0-1-s-0)" stroke="#6c8ebf" stroke-width="2" stroke-miterlimit="10" pointer-events="none"/><g fill="#000000" font-family="Helvetica" text-anchor="middle" font-size="12px"><text x="82.75" y="1689.75">Is it April</text><text x="82.75" y="1703.75">1st?</text></g><path d="M 83 1627 L 83 1633.5 Q 83 1640 83 1643.32 L 83 1646.63" fill="none" stroke="#000000" stroke-miterlimit="10" pointer-events="none"/><path d="M 83 1651.88 L 79.5 1644.88 L 83 1646.63 L 86.5 1644.88 Z" fill="#000000" stroke="#000000" stroke-miterlimit="10" pointer-events="none"/><g fill="#000000" font-family="Helvetica" text-anchor="middle" font-size="12px"><rect fill="#ffffff" stroke="none" x="90" y="1627" width="17" height="15" stroke-width="0"/><text x="97.5" y="1637.5">No</text></g><path d="M 594.86 1663 L 649.14 1663 C 672.81 1663 692 1676.43 692 1693 C 692 1709.57 672.81 1723 649.14 1723 L 594.86 1723 C 571.19 1723 552 1709.57 552 1693 C 552 1676.43 571.19 1663 594.86 1663 Z" fill="url(#mx-gradient-e1d5e7-1-8c6c9c-1-s-0)" stroke="#9673a6" stroke-width="2" stroke-miterlimit="10" pointer-events="none"/><g fill="#000000" font-family="Helvetica" text-anchor="middle" font-size="12px"><text x="621.75" y="1687.75">418</text><text x="621.75" y="1701.75">I'm a Teapot</text></g><path d="M 123 1693 L 327.5 1693 Q 337.5 1693 347.5 1693 L 545.63 1693" fill="none" stroke="#000000" stroke-miterlimit="10" pointer-events="none"/><path d="M 550.88 1693 L 543.88 1696.5 L 545.63 1693 L 543.88 1689.5 Z" fill="#000000" stroke="#000000" stroke-miterlimit="10" pointer-events="none"/><g fill="#000000" font-family="Helvetica" text-anchor="middle" font-size="12px"><rect fill="#ffffff" stroke="none" x="129" y="1676" width="23" height="15" stroke-width="0"/><text x="139.5" y="1686.5">Yes</text></g></g></svg>