<?xml version="1.0" encoding="UTF-8"?>
<!DOCTYPE svg PUBLIC "-//W3C//DTD SVG 1.1//EN" "http://www.w3.org/Graphics/SVG/1.1/DTD/svg11.dtd">
<svg xmlns="http://www.w3.org/2000/svg" xmlns:xlink="http://www.w3.org/1999/xlink" width="604px" height="636px" version="1.1" style="background-color: rgb(255, 255, 255);"><defs><linearGradient x1="0%" y1="0%" x2="0%" y2="100%" id="mx-gradient-d5e8d4-1-97d077-1-s-0"><stop offset="0%" style="stop-color:#D5E8D4"/><stop offset="100%" style="stop-color:#97D077"/></linearGradient><linearGradient x1="0%" y1="0%" x2="0%" y2="100%" id="mx-gradient-e1d5e7-1-8c6c9c-1-s-0"><stop offset="0%" style="stop-color:#E1D5E7"/><stop offset="100%" style="stop-color:#8C6C9C"/></linearGradient><linearGradient x1="0%" y1="0%" x2="0%" y2="100%" id="mx-gradient-dae8fc-1-7ea6e0-1-s-0"><stop offset="0%" style="stop-color:#DAE8FC"/><stop offset="100%" style="stop-color:#7EA6E0"/></linearGradient><linearGradient x1="0%" y1="0%" x2="0%" y2="100%" id="mx-gradient-fff2cc-1-ffd966-1-s-0"><stop offset="0%" style="stop-color:#FFF2CC"/><stop offset="100%" style="stop-color:#FFD966"/></linearGradient></defs><g transform="translate(0.5,0.5)"><path d="M 142 271 L 172 271 Q 182 271 192 271 L 215.63 271" fill="none" stroke="#000000" stroke-miterlimit="10" pointer-events="none"/><path d="M 220.88 271 L 213.88 274.5 L 215.63 271 L 213.88 267.5 Z" fill="#000000" stroke="#000000" stroke-miterlimit="10" pointer-events="none"/><g fill="#000000" font-family="Helvetica" text-anchor="middle" font-size="12px"><rect fill="#ffffff" stroke="none" x="148" y="255" width="23" height="15" stroke-width="0"/><text x="158.5" y="265.5">Yes</text></g><path d="M 490.98 241 L 553.02 241 C 580.07 241 602 254.43 602 271 C 602 287.57 580.07 301 553.02 301 L 490.98 301 C 463.93 301 442 287.57 442 271 C 442 254.43 463.93 241 490.98 241 Z" fill="url(#mx-gradient-d5e8d4-1-97d077-1-s-0)" stroke="#82b366" stroke-width="2" stroke-miterlimit="10" pointer-events="none"/><g fill="#000000" font-family="Helvetica" text-anchor="middle" font-size="12px"><text x="521.75" y="266.75">502</text><text x="521.75" y="280.75">Bad Gateway</text></g><path d="M 490.98 326 L 553.02 326 C 580.07 326 602 339.43 602 356 C 602 372.57 580.07 386 553.02 386 L 490.98 386 C 463.93 386 442 372.57 442 356 C 442 339.43 463.93 326 490.98 326 Z" fill="url(#mx-gradient-e1d5e7-1-8c6c9c-1-s-0)" stroke="#9673a6" stroke-width="2" stroke-miterlimit="10" pointer-events="none"/><g fill="#000000" font-family="Helvetica" text-anchor="middle" font-size="12px"><text x="521.75" y="349.25">504</text><text x="521.75" y="363.25">Gateway Timeout</text></g><path d="M 332 271 L 377 271 Q 387 271 397 271 L 435.63 271" fill="none" stroke="#000000" stroke-miterlimit="10" pointer-events="none"/><path d="M 440.88 271 L 433.88 274.5 L 435.63 271 L 433.88 267.5 Z" fill="#000000" stroke="#000000" stroke-miterlimit="10" pointer-events="none"/><g fill="#000000" font-family="Helvetica" text-anchor="middle" font-size="12px"><rect fill="#ffffff" stroke="none" x="337" y="255" width="23" height="15" stroke-width="0"/><text x="347.5" y="265.5">Yes</text></g><path d="M 277 326 L 277 346 Q 277 356 287 356 L 435.63 356" fill="none" stroke="#000000" stroke-miterlimit="10" pointer-events="none"/><path d="M 440.88 356 L 433.88 359.5 L 435.63 356 L 433.88 352.5 Z" fill="#000000" stroke="#000000" stroke-miterlimit="10" pointer-events="none"/><g fill="#000000" font-family="Helvetica" text-anchor="middle" font-size="12px"><rect fill="#ffffff" stroke="none" x="283" y="330" width="17" height="15" stroke-width="0"/><text x="290.5" y="340.5">No</text></g><path d="M 490.98 115 L 553.02 115 C 580.07 115 602 128.43 602 145 C 602 161.57 580.07 175 553.02 175 L 490.98 175 C 463.93 175 442 161.57 442 145 C 442 128.43 463.93 115 490.98 115 Z" fill="url(#mx-gradient-d5e8d4-1-97d077-1-s-0)" stroke="#82b366" stroke-width="2" stroke-miterlimit="10" pointer-events="none"/><g fill="#000000" font-family="Helvetica" text-anchor="middle" font-size="12px"><text x="521.75" y="139.25">503</text><text x="521.75" y="153.25">Service Unavailable</text></g><path d="M 137 145 L 279.5 145 Q 289.5 145 299.5 145 L 435.63 145" fill="none" stroke="#000000" stroke-miterlimit="10" pointer-events="none"/><path d="M 440.88 145 L 433.88 148.5 L 435.63 145 L 433.88 141.5 Z" fill="#000000" stroke="#000000" stroke-miterlimit="10" pointer-events="none"/><g fill="#000000" font-family="Helvetica" text-anchor="middle" font-size="12px"><rect fill="#ffffff" stroke="none" x="144" y="129" width="23" height="15" stroke-width="0"/><text x="154.5" y="139.5">Yes</text></g><path d="M 82 218 L 142 270.5 L 82 323 L 22 270.5 Z" fill="url(#mx-gradient-dae8fc-1-7ea6e0-1-s-0)" stroke="#6c8ebf" stroke-width="2" stroke-miterlimit="10" pointer-events="none"/><g fill="#000000" font-family="Helvetica" text-anchor="middle" font-size="12px"><text x="81.75" y="262.75">Is it a problem</text><text x="81.75" y="276.75">with another</text><text x="81.75" y="290.75">server?</text></g><path d="M 82 62 L 82 90.63" fill="none" stroke="#000000" stroke-miterlimit="10" pointer-events="none"/><path d="M 82 95.88 L 78.5 88.88 L 82 90.63 L 85.5 88.88 Z" fill="#000000" stroke="#000000" stroke-miterlimit="10" pointer-events="none"/><ellipse cx="82" cy="32" rx="70" ry="30" fill="url(#mx-gradient-dae8fc-1-7ea6e0-1-s-0)" stroke="#6c8ebf" stroke-width="2" pointer-events="none"/><g fill="#000000" font-family="Helvetica" text-anchor="middle" font-size="12px"><text x="81.75" y="35.75">5XX Response</text></g><path d="M 82 384 L 152 447 L 82 510 L 12 447 Z" fill="url(#mx-gradient-dae8fc-1-7ea6e0-1-s-0)" stroke="#6c8ebf" stroke-width="2" stroke-miterlimit="10" pointer-events="none"/><g fill="#000000" font-family="Helvetica" text-anchor="middle" font-size="12px"><text x="81.75" y="428.75">Do you feel</text><text x="81.75" y="442.75">bad your code</text><text x="81.75" y="456.75">can't handle the</text><text x="81.75" y="470.75">request?</text></g><path d="M 50.98 574 L 113.02 574 C 140.07 574 162 587.43 162 604 C 162 620.57 140.07 634 113.02 634 L 50.98 634 C 23.93 634 2 620.57 2 604 C 2 587.43 23.93 574 50.98 574 Z" fill="url(#mx-gradient-fff2cc-1-ffd966-1-s-0)" stroke="#d6b656" stroke-width="2" stroke-miterlimit="10" pointer-events="none"/><g fill="#000000" font-family="Helvetica" text-anchor="middle" font-size="12px"><text x="81.75" y="598.25">500</text><text x="81.75" y="612.25">Internal Server Error</text></g><path d="M 490.98 417 L 553.02 417 C 580.07 417 602 430.43 602 447 C 602 463.57 580.07 477 553.02 477 L 490.98 477 C 463.93 477 442 463.57 442 447 C 442 430.43 463.93 417 490.98 417 Z" fill="url(#mx-gradient-e1d5e7-1-8c6c9c-1-s-0)" stroke="#9673a6" stroke-width="2" stroke-miterlimit="10" pointer-events="none"/><g fill="#000000" font-family="Helvetica" text-anchor="middle" font-size="12px"><text x="521.75" y="441.25">501</text><text x="521.75" y="455.25">Not Implemented</text></g><path d="M 152 447 L 287 447 Q 297 447 307 447 L 435.63 447" fill="none" stroke="#000000" stroke-miterlimit="10" pointer-events="none"/><path d="M 440.88 447 L 433.88 450.5 L 435.63 447 L 433.88 443.5 Z" fill="#000000" stroke="#000000" stroke-miterlimit="10" pointer-events="none"/><g fill="#000000" font-family="Helvetica" text-anchor="middle" font-size="12px"><rect fill="#ffffff" stroke="none" x="160" y="429" width="23" height="15" stroke-width="0"/><text x="170.5" y="439.5">Yes</text></g><path d="M 82 510 L 82 532 Q 82 542 82 552 L 82 567.63" fill="none" stroke="#000000" stroke-miterlimit="10" pointer-events="none"/><path d="M 82 572.88 L 78.5 565.88 L 82 567.63 L 85.5 565.88 Z" fill="#000000" stroke="#000000" stroke-miterlimit="10" pointer-events="none"/><g fill="#000000" font-family="Helvetica" text-anchor="middle" font-size="12px"><rect fill="#ffffff" stroke="none" x="89" y="514" width="17" height="15" stroke-width="0"/><text x="96.5" y="524.5">No</text></g><path d="M 82 192 L 82 211.63" fill="none" stroke="#000000" stroke-miterlimit="10" pointer-events="none"/><path d="M 82 216.88 L 78.5 209.88 L 82 211.63 L 85.5 209.88 Z" fill="#000000" stroke="#000000" stroke-miterlimit="10" pointer-events="none"/><g fill="#000000" font-family="Helvetica" text-anchor="middle" font-size="12px"><rect fill="#ffffff" stroke="none" x="89" y="192" width="17" height="15" stroke-width="0"/><text x="96.5" y="202.5">No</text></g><path d="M 82 97 L 137 144.5 L 82 192 L 27 144.5 Z" fill="url(#mx-gradient-dae8fc-1-7ea6e0-1-s-0)" stroke="#6c8ebf" stroke-width="2" stroke-miterlimit="10" pointer-events="none"/><g fill="#000000" font-family="Helvetica" text-anchor="middle" font-size="12px"><text x="81.75" y="132.75">Should the</text><text x="81.75" y="146.75">user Retry-After</text><text x="81.75" y="160.75">some time?</text></g><path d="M 277 216 L 332 271 L 277 326 L 222 271 Z" fill="url(#mx-gradient-dae8fc-1-7ea6e0-1-s-0)" stroke="#6c8ebf" stroke-width="2" stroke-miterlimit="10" pointer-events="none"/><g fill="#000000" font-family="Helvetica" text-anchor="middle" font-size="12px"><text x="276.75" y="260.75">Is the other</text><text x="276.75" y="274.75">server</text><text x="276.75" y="288.75">responding?</text></g><path d="M 82 323 L 82 377.63" fill="none" stroke="#000000" stroke-miterlimit="10" pointer-events="none"/><path d="M 82 382.88 L 78.5 375.88 L 82 377.63 L 85.5 375.88 Z" fill="#000000" stroke="#000000" stroke-miterlimit="10" pointer-events="none"/><g fill="#000000" font-family="Helvetica" text-anchor="middle" font-size="12px"><rect fill="#ffffff" stroke="none" x="88" y="326" width="17" height="15" stroke-width="0"/><text x="95.5" y="336.5">No</text></g></g></svg>